<svg width="44" height="44" viewBox="0 0 44 44" fill="none" xmlns="http://www.w3.org/2000/svg">
<circle cx="22" cy="22" r="22" fill="black"/>
<path d="M32.5 27.741V28.0056C32.5 28.3026 32.4461 28.6613 32.3524 29.069C32.2596 29.4725 32.1572 29.8136 32.041 30.0789C31.9056 30.399 31.6614 30.6888 31.3564 30.9538C31.0471 31.2225 30.6509 31.4868 30.1779 31.7491L30.1739 31.7513L30.1739 31.7512C29.2671 32.2433 28.3491 32.5 27.4255 32.5C27.1609 32.5 26.902 32.4828 26.6492 32.4482L26.649 32.4482C26.3915 32.4128 26.1099 32.351 25.8058 32.2654L25.8057 32.2654C25.5156 32.1838 25.2889 32.115 25.1331 32.0598L25.3002 31.5885L25.1331 32.0597C24.9888 32.0086 24.7352 31.9149 24.3757 31.7801L24.5512 31.3119L24.3757 31.7801C24.0121 31.6437 23.8019 31.5667 23.7316 31.5432L23.7218 31.5399L23.7218 31.5398C22.8118 31.2148 21.9918 30.8268 21.265 30.3738C20.0731 29.6381 18.8536 28.6422 17.6057 27.3944L17.6057 27.3944C16.3579 26.1464 15.3621 24.9269 14.6262 23.7352C14.1732 23.0082 13.7853 22.1884 13.4602 21.2783L13.4567 21.2685L13.4568 21.2684C13.4333 21.1982 13.3563 20.9881 13.2199 20.6244C13.0851 20.2649 12.9914 20.0113 12.9403 19.8671L12.9403 19.8671C12.885 19.7113 12.8162 19.4845 12.7346 19.1944C12.649 18.8903 12.5872 18.6087 12.5518 18.3511L12.5518 18.3509C12.5172 18.098 12.5 17.8391 12.5 17.5745C12.5 16.6509 12.7567 15.7329 13.2488 14.8261L13.2509 14.8221L13.251 14.8221C13.5132 14.3491 13.7775 13.9529 14.0463 13.6436C14.3112 13.3386 14.601 13.0945 14.921 12.959C15.1863 12.8428 15.5274 12.7404 15.9309 12.6476L15.9309 12.6476C16.3386 12.5539 16.6972 12.5 16.9943 12.5C17.1354 12.5 17.304 12.5125 17.4566 12.5734C17.592 12.6235 17.6951 12.7103 17.765 12.7793C17.8442 12.8577 17.9185 12.9516 17.988 13.0513C18.1253 13.2482 18.2738 13.5109 18.4331 13.8287C18.5347 14.0046 18.6696 14.2476 18.8371 14.5561C19.0072 14.8693 19.1634 15.1528 19.306 15.4067L19.306 15.4068C19.4436 15.6518 19.5766 15.8816 19.7051 16.0963L32.5 27.741ZM32.5 27.741L32.4774 27.7256M32.5 27.741L32.4774 27.7256M32.4774 27.7256C32.4662 27.6639 32.4498 27.602 32.426 27.5425M32.4774 27.7256L32.426 27.5425M32.426 27.5425C32.3759 27.4073 32.2892 27.3044 32.2202 27.2347C32.1419 27.1554 32.048 27.0812 31.9483 27.0117C31.7514 26.8744 31.4888 26.7259 31.1709 26.5665C30.995 26.4649 30.752 26.33 30.4436 26.1625L32.426 27.5425ZM20.2649 16.9724C20.1861 16.8092 20.0735 16.6258 19.9359 16.4266L20.2649 16.9724ZM18.2014 20.0632L18.2014 20.0632L30.4435 26.1625C30.1304 25.9924 29.8469 25.8362 29.5929 25.6936C29.3478 25.556 29.118 25.4229 28.9033 25.2945C28.8453 25.2524 28.7317 25.1733 28.573 25.0637L28.5729 25.0636C28.3735 24.926 28.1902 24.8134 28.0272 24.7347L27.8098 25.185L28.0272 24.7347C27.8392 24.644 27.637 24.5905 27.4252 24.5905C27.2185 24.5905 27.0307 24.6629 26.8739 24.7523C26.7148 24.8429 26.5586 24.9677 26.406 25.1127C26.1155 25.3888 25.8492 25.6889 25.6075 26.0127L25.6074 26.0129C25.3956 26.2969 25.1719 26.5584 24.9364 26.7981C24.8265 26.9099 24.7432 26.9763 24.6856 27.0119C24.6718 27.0205 24.6611 27.0263 24.6534 27.0301C24.6506 27.0295 24.6474 27.0289 24.644 27.0281C24.6203 27.0229 24.5869 27.0133 24.5427 26.9969L24.5422 26.9967C24.426 26.9537 24.3542 26.923 24.3161 26.904L24.3149 26.9034C24.2749 26.8835 24.185 26.8319 24.031 26.7368L24.0308 26.7367C23.9102 26.6622 23.8073 26.5989 23.7542 26.5697L23.7543 26.5697C22.5574 25.9058 21.5389 25.1501 20.6942 24.3054C19.8495 23.4607 19.0939 22.4422 18.4299 21.2453L18.4298 21.2453C18.4007 21.1922 18.3375 21.0895 18.2628 20.9686C18.1683 20.8155 18.1163 20.7248 18.0958 20.6838C18.0764 20.6449 18.0455 20.5725 18.0029 20.4573L17.534 20.6309L18.0029 20.4573C17.9864 20.4129 17.9768 20.3793 17.9715 20.3554C17.9707 20.352 17.9701 20.3489 17.9695 20.3461C17.9733 20.3384 17.9791 20.3277 17.9877 20.3139C18.0233 20.2564 18.0896 20.173 18.2014 20.0632ZM20.4091 17.5744C20.4091 17.3627 20.3556 17.1605 20.265 16.9726L19.5245 18.2491L19.8869 18.5936C19.8869 18.5936 19.8869 18.5936 19.8869 18.5936C20.0319 18.441 20.1566 18.2848 20.2473 18.1257C20.3367 17.9688 20.4091 17.7811 20.4091 17.5744Z" stroke="white"/>
</svg>
